<svg width="32" height="32" viewBox="0 0 32 32" fill="none" xmlns="http://www.w3.org/2000/svg">
<path d="M16 0.333008C24.6525 0.333008 31.667 7.34754 31.667 16C31.667 24.6525 24.6525 31.667 16 31.667C7.34754 31.667 0.333008 24.6525 0.333008 16C0.333008 7.34754 7.34754 0.333008 16 0.333008Z" stroke="black" stroke-width="0.666667"/>
<path d="M16.0013 23C15.8276 23 15.6513 22.9358 15.5123 22.8074C15.2237 22.5373 15.2077 22.0852 15.4776 21.7963C17.3428 19.7983 16.477 18.279 15.3787 16.3558C14.7988 15.3367 14.1975 14.2828 14.0398 13.1166C13.8528 11.7364 14.3231 10.4632 15.4776 9.22746C15.7475 8.93858 16.1991 8.92253 16.4877 9.19268C16.7763 9.46284 16.7923 9.91488 16.5224 10.2038C14.6572 12.2018 15.5257 13.7211 16.6213 15.6443C17.2012 16.6634 17.8025 17.7173 17.9602 18.8835C18.1472 20.2637 17.6769 21.5369 16.5224 22.7726C16.3808 22.9224 16.1911 23 15.9987 23" fill="black"/>
</svg>
