<svg width="32" height="32" viewBox="0 0 32 32" fill="none" xmlns="http://www.w3.org/2000/svg">
<path d="M16 0.333008C24.6525 0.333008 31.667 7.34754 31.667 16C31.667 24.6525 24.6525 31.667 16 31.667C7.34754 31.667 0.333008 24.6525 0.333008 16C0.333008 7.34754 7.34754 0.333008 16 0.333008Z" stroke="black" stroke-width="0.666667"/>
<path d="M9.66675 16.0013C9.66675 15.825 9.72483 15.6513 9.84099 15.5123C10.0854 15.2237 10.4944 15.2077 10.7558 15.4776C12.5636 17.3428 13.9381 16.4743 15.6782 15.3787C16.6002 14.7988 17.5537 14.1975 18.6089 14.0398C19.8576 13.8528 21.0096 14.3231 22.1276 15.4776C22.389 15.7475 22.4035 16.1991 22.1591 16.4877C21.9147 16.7763 21.5057 16.7923 21.2443 16.5224C19.4365 14.6572 18.0619 15.5257 16.3219 16.6213C15.3999 17.2012 14.4464 17.8025 13.3912 17.9602C12.1425 18.1472 10.9905 17.6769 9.87245 16.5224C9.73693 16.3808 9.66675 16.1911 9.66675 15.9987" fill="black"/>
</svg>
