<svg width="32" height="32" viewBox="0 0 32 32" fill="none" xmlns="http://www.w3.org/2000/svg">
<g id="ArrowsVertical">
<path id="Vector" d="M21.9075 17.4326L16.2234 22.9107C16.1941 22.939 16.1593 22.9615 16.1209 22.9768C16.0826 22.9921 16.0415 23 16 23C15.9585 23 15.9174 22.9921 15.8791 22.9768C15.8407 22.9615 15.8059 22.939 15.7766 22.9107L10.0925 17.4326C10.0333 17.3755 10 17.298 10 17.2173C10 17.1365 10.0333 17.059 10.0925 17.0019C10.1518 16.9448 10.2322 16.9127 10.316 16.9127C10.3998 16.9127 10.4801 16.9448 10.5394 17.0019L15.6842 21.9604V9.30434C15.6842 9.22363 15.7175 9.14622 15.7767 9.08914C15.8359 9.03206 15.9162 9 16 9C16.0838 9 16.1641 9.03206 16.2233 9.08914C16.2825 9.14622 16.3158 9.22363 16.3158 9.30434V21.9604L21.4606 17.0019C21.5199 16.9448 21.6002 16.9127 21.684 16.9127C21.7678 16.9127 21.8482 16.9448 21.9075 17.0019C21.9667 17.059 22 17.1365 22 17.2173C22 17.298 21.9667 17.3755 21.9075 17.4326Z" fill="#00FFBA"/>
</g>
</svg>
