<svg width="16" height="16" viewBox="0 0 16 16" fill="none" xmlns="http://www.w3.org/2000/svg">
<g id="CaretDown">
<path id="Vector" d="M13.2649 6.26492L8.26492 11.2649C8.19461 11.3351 8.0993 11.3746 7.99992 11.3746C7.90055 11.3746 7.80524 11.3351 7.73492 11.2649L2.73492 6.26492C2.66868 6.19384 2.63262 6.09981 2.63434 6.00266C2.63605 5.90551 2.67541 5.81282 2.74411 5.74411C2.81282 5.67541 2.90551 5.63605 3.00266 5.63434C3.09981 5.63262 3.19384 5.66868 3.26492 5.73492L7.99992 10.4693L12.7349 5.73492C12.806 5.66868 12.9 5.63262 12.9972 5.63434C13.0943 5.63605 13.187 5.67541 13.2557 5.74411C13.3244 5.81282 13.3638 5.90551 13.3655 6.00266C13.3672 6.09981 13.3312 6.19384 13.2649 6.26492Z" fill="white"/>
</g>
</svg>
