<svg width="20" height="20" viewBox="0 0 20 20" fill="none" xmlns="http://www.w3.org/2000/svg">
<g id="CaretDown">
<path id="Vector" d="M16.5813 7.83128L10.3313 14.0813C10.2434 14.1691 10.1242 14.2184 10 14.2184C9.87578 14.2184 9.75664 14.1691 9.66875 14.0813L3.41875 7.83128C3.33595 7.74242 3.29088 7.62489 3.29302 7.50345C3.29516 7.38201 3.34436 7.26615 3.43024 7.18026C3.51612 7.09438 3.63199 7.04518 3.75343 7.04304C3.87486 7.0409 3.99239 7.08598 4.08125 7.16878L10 13.0867L15.9188 7.16878C16.0076 7.08598 16.1251 7.0409 16.2466 7.04304C16.368 7.04518 16.4839 7.09438 16.5698 7.18026C16.6556 7.26615 16.7048 7.38201 16.707 7.50345C16.7091 7.62489 16.6641 7.74242 16.5813 7.83128Z" fill="white"/>
</g>
</svg>
