<svg width="28" height="28" viewBox="0 0 28 28" fill="none" xmlns="http://www.w3.org/2000/svg">
<g id="ShoppingCartSimple">
<path id="Vector" d="M25.8978 7.47797C25.8366 7.39736 25.7575 7.33202 25.6668 7.28705C25.5761 7.24208 25.4762 7.21871 25.375 7.21875H6.08891L5.00719 3.32391C4.96872 3.18581 4.88609 3.0641 4.77193 2.9774C4.65777 2.89069 4.51836 2.84375 4.375 2.84375H1.75C1.57595 2.84375 1.40903 2.91289 1.28596 3.03596C1.16289 3.15903 1.09375 3.32595 1.09375 3.5C1.09375 3.67405 1.16289 3.84097 1.28596 3.96404C1.40903 4.08711 1.57595 4.15625 1.75 4.15625H3.87625L7.76562 18.1442C7.90753 18.6495 8.21018 19.0948 8.62777 19.4128C9.04536 19.7307 9.55516 19.9039 10.08 19.9062H20.8906C21.4162 19.9049 21.927 19.7321 22.3455 19.4141C22.764 19.0961 23.0673 18.6502 23.2094 18.1442L26.0127 8.05109C26.0391 7.95319 26.0425 7.85048 26.0226 7.75104C26.0026 7.6516 25.9599 7.55813 25.8978 7.47797ZM21.9384 17.7931C21.8747 18.0224 21.7379 18.2246 21.5488 18.3691C21.3597 18.5136 21.1286 18.5925 20.8906 18.5938H10.08C9.84109 18.5936 9.60878 18.5153 9.41858 18.3708C9.22838 18.2262 9.09075 18.0233 9.02672 17.7931L6.45312 8.53125H24.512L21.9384 17.7931ZM11.1562 23.625C11.1562 23.9279 11.0664 24.2239 10.8982 24.4757C10.7299 24.7275 10.4908 24.9238 10.211 25.0397C9.93118 25.1556 9.6233 25.1859 9.32627 25.1268C9.02923 25.0677 8.75639 24.9219 8.54224 24.7078C8.32809 24.4936 8.18226 24.2208 8.12317 23.9237C8.06409 23.6267 8.09441 23.3188 8.21031 23.039C8.32621 22.7592 8.52247 22.5201 8.77428 22.3518C9.0261 22.1836 9.32215 22.0938 9.625 22.0938C10.0311 22.0938 10.4206 22.2551 10.7078 22.5422C10.9949 22.8294 11.1562 23.2189 11.1562 23.625ZM22.5312 23.625C22.5312 23.9279 22.4414 24.2239 22.2732 24.4757C22.1049 24.7275 21.8658 24.9238 21.586 25.0397C21.3062 25.1556 20.9983 25.1859 20.7013 25.1268C20.4042 25.0677 20.1314 24.9219 19.9172 24.7078C19.7031 24.4936 19.5573 24.2208 19.4982 23.9237C19.4391 23.6267 19.4694 23.3188 19.5853 23.039C19.7012 22.7592 19.8975 22.5201 20.1493 22.3518C20.4011 22.1836 20.6971 22.0938 21 22.0938C21.4061 22.0938 21.7956 22.2551 22.0828 22.5422C22.3699 22.8294 22.5312 23.2189 22.5312 23.625Z" fill="white"/>
</g>
</svg>
