<svg viewBox="14.5 2.5 20 20" fill="none" xmlns="http://www.w3.org/2000/svg">
<g id="CheckCircle">
<path id="Vector" d="M24.5 2.5C22.5222 2.5 20.5888 3.08649 18.9443 4.1853C17.2998 5.28412 16.0181 6.8459 15.2612 8.67316C14.5043 10.5004 14.3063 12.5111 14.6922 14.4509C15.078 16.3907 16.0304 18.1725 17.4289 19.5711C18.8275 20.9696 20.6093 21.922 22.5491 22.3078C24.4889 22.6937 26.4996 22.4957 28.3268 21.7388C30.1541 20.9819 31.7159 19.7002 32.8147 18.0557C33.9135 16.4112 34.5 14.4778 34.5 12.5C34.4972 9.84869 33.4427 7.30678 31.568 5.43202C29.6932 3.55727 27.1513 2.5028 24.5 2.5ZM28.8904 10.7365L23.5058 16.1212C23.4343 16.1927 23.3495 16.2494 23.2561 16.2881C23.1627 16.3268 23.0626 16.3468 22.9615 16.3468C22.8605 16.3468 22.7604 16.3268 22.667 16.2881C22.5736 16.2494 22.4888 16.1927 22.4173 16.1212L20.1096 13.8135C19.9653 13.6691 19.8842 13.4734 19.8842 13.2692C19.8842 13.0651 19.9653 12.8693 20.1096 12.725C20.254 12.5807 20.4497 12.4996 20.6538 12.4996C20.858 12.4996 21.0537 12.5807 21.1981 12.725L22.9615 14.4894L27.8019 9.64808C27.8734 9.57661 27.9582 9.51991 28.0516 9.48123C28.145 9.44256 28.2451 9.42265 28.3462 9.42265C28.4472 9.42265 28.5473 9.44256 28.6407 9.48123C28.7341 9.51991 28.8189 9.57661 28.8904 9.64808C28.9619 9.71954 29.0185 9.80439 29.0572 9.89777C29.0959 9.99115 29.1158 10.0912 29.1158 10.1923C29.1158 10.2934 29.0959 10.3935 29.0572 10.4868C29.0185 10.5802 28.9619 10.6651 28.8904 10.7365Z" fill="#00FFBA"></path>
</g>
</svg>