<svg width="62" height="62" viewBox="0 0 62 62" fill="none" xmlns="http://www.w3.org/2000/svg">
<g id="PauseCircle">
<path id="Vector" d="M31 5.8125C26.0184 5.8125 21.1486 7.28972 17.0066 10.0574C12.8645 12.825 9.63618 16.7587 7.7298 21.3612C5.82341 25.9636 5.32462 31.0279 6.29648 35.9138C7.26835 40.7997 9.66722 45.2877 13.1898 48.8103C16.7123 52.3328 21.2003 54.7317 26.0862 55.7035C30.9721 56.6754 36.0364 56.1766 40.6388 54.2702C45.2413 52.3638 49.175 49.1355 51.9427 44.9934C54.7103 40.8514 56.1875 35.9816 56.1875 31C56.1792 24.3224 53.5228 17.9207 48.8011 13.1989C44.0793 8.47718 37.6776 5.82083 31 5.8125ZM27.125 38.75C27.125 39.2639 26.9209 39.7567 26.5575 40.12C26.1942 40.4834 25.7014 40.6875 25.1875 40.6875C24.6737 40.6875 24.1808 40.4834 23.8175 40.12C23.4541 39.7567 23.25 39.2639 23.25 38.75V23.25C23.25 22.7361 23.4541 22.2433 23.8175 21.88C24.1808 21.5166 24.6737 21.3125 25.1875 21.3125C25.7014 21.3125 26.1942 21.5166 26.5575 21.88C26.9209 22.2433 27.125 22.7361 27.125 23.25V38.75ZM38.75 38.75C38.75 39.2639 38.5459 39.7567 38.1825 40.12C37.8192 40.4834 37.3264 40.6875 36.8125 40.6875C36.2987 40.6875 35.8058 40.4834 35.4425 40.12C35.0791 39.7567 34.875 39.2639 34.875 38.75V23.25C34.875 22.7361 35.0791 22.2433 35.4425 21.88C35.8058 21.5166 36.2987 21.3125 36.8125 21.3125C37.3264 21.3125 37.8192 21.5166 38.1825 21.88C38.5459 22.2433 38.75 22.7361 38.75 23.25V38.75Z" fill="#00FFBA"/>
</g>
</svg>
