<svg width="62" height="62" viewBox="0 0 62 62" fill="none" xmlns="http://www.w3.org/2000/svg">
<g id="PlayCircle">
<path id="Vector" d="M31 5.8125C26.0184 5.8125 21.1486 7.28972 17.0066 10.0574C12.8645 12.825 9.63618 16.7587 7.7298 21.3612C5.82341 25.9636 5.32462 31.0279 6.29648 35.9138C7.26835 40.7997 9.66722 45.2877 13.1898 48.8103C16.7123 52.3328 21.2003 54.7317 26.0862 55.7035C30.9721 56.6754 36.0364 56.1766 40.6388 54.2702C45.2413 52.3638 49.175 49.1355 51.9427 44.9934C54.7103 40.8514 56.1875 35.9816 56.1875 31C56.1805 24.322 53.5245 17.9196 48.8025 13.1975C44.0804 8.47549 37.678 5.81955 31 5.8125ZM40.8207 32.5936L28.227 41.3123C27.9362 41.5134 27.596 41.6311 27.2432 41.6526C26.8904 41.6742 26.5384 41.5988 26.2253 41.4347C25.9123 41.2705 25.6501 41.0239 25.4672 40.7214C25.2842 40.419 25.1875 40.0722 25.1875 39.7188V22.2812C25.1875 21.9278 25.2842 21.581 25.4672 21.2786C25.6501 20.9761 25.9123 20.7295 26.2253 20.5653C26.5384 20.4012 26.8904 20.3258 27.2432 20.3474C27.596 20.3689 27.9362 20.4866 28.227 20.6877L40.8207 29.4064C41.0785 29.5847 41.2892 29.8228 41.4347 30.1003C41.5802 30.3779 41.6562 30.6866 41.6562 31C41.6562 31.3134 41.5802 31.6221 41.4347 31.8997C41.2892 32.1772 41.0785 32.4153 40.8207 32.5936Z" fill="#00FFBA"/>
</g>
</svg>
