<svg width="29" height="28" viewBox="0 0 29 28" fill="none" xmlns="http://www.w3.org/2000/svg">
<g id="PlusCircle">
<path id="Vector" d="M14.5 2.625C12.2502 2.625 10.051 3.29213 8.18039 4.54203C6.30978 5.79193 4.85182 7.56847 3.99088 9.64698C3.12993 11.7255 2.90467 14.0126 3.34357 16.2192C3.78248 18.4257 4.86584 20.4525 6.45667 22.0433C8.04749 23.6342 10.0743 24.7175 12.2809 25.1564C14.4874 25.5953 16.7745 25.3701 18.853 24.5091C20.9315 23.6482 22.7081 22.1902 23.958 20.3196C25.2079 18.449 25.875 16.2498 25.875 14C25.8718 10.9841 24.6724 8.09271 22.5398 5.96018C20.4073 3.82764 17.5159 2.62818 14.5 2.625ZM14.5 23.625C12.5964 23.625 10.7355 23.0605 9.15264 22.0029C7.56982 20.9453 6.33616 19.4421 5.60766 17.6833C4.87917 15.9246 4.68856 13.9893 5.05995 12.1223C5.43133 10.2552 6.34802 8.54018 7.6941 7.1941C9.04018 5.84802 10.7552 4.93132 12.6223 4.55994C14.4893 4.18856 16.4246 4.37917 18.1833 5.10766C19.9421 5.83615 21.4453 7.06981 22.5029 8.65264C23.5605 10.2355 24.125 12.0964 24.125 14C24.1221 16.5518 23.1071 18.9983 21.3027 20.8027C19.4983 22.6071 17.0518 23.6221 14.5 23.625ZM19.75 14C19.75 14.2321 19.6578 14.4546 19.4937 14.6187C19.3296 14.7828 19.1071 14.875 18.875 14.875H15.375V18.375C15.375 18.6071 15.2828 18.8296 15.1187 18.9937C14.9546 19.1578 14.7321 19.25 14.5 19.25C14.2679 19.25 14.0454 19.1578 13.8813 18.9937C13.7172 18.8296 13.625 18.6071 13.625 18.375V14.875H10.125C9.89294 14.875 9.67038 14.7828 9.50629 14.6187C9.34219 14.4546 9.25 14.2321 9.25 14C9.25 13.7679 9.34219 13.5454 9.50629 13.3813C9.67038 13.2172 9.89294 13.125 10.125 13.125H13.625V9.625C13.625 9.39294 13.7172 9.17038 13.8813 9.00628C14.0454 8.84219 14.2679 8.75 14.5 8.75C14.7321 8.75 14.9546 8.84219 15.1187 9.00628C15.2828 9.17038 15.375 9.39294 15.375 9.625V13.125H18.875C19.1071 13.125 19.3296 13.2172 19.4937 13.3813C19.6578 13.5454 19.75 13.7679 19.75 14Z" fill="#00FFBA"/>
</g>
</svg>
