<svg width="15" height="16" viewBox="0 0 15 16" fill="none" xmlns="http://www.w3.org/2000/svg">
<path d="M1.45312 3.79999H2.84707H13.9986" stroke="#fff" stroke-opacity="0.45" stroke-width="1.2" stroke-linecap="round" stroke-linejoin="round"/>
<path d="M4.93783 3.8V2.4C4.93783 2.0287 5.0847 1.6726 5.34611 1.41005C5.60753 1.1475 5.96208 1 6.33178 1H9.11966C9.48935 1 9.84391 1.1475 10.1053 1.41005C10.3667 1.6726 10.5136 2.0287 10.5136 2.4V3.8M12.6045 3.8V13.6C12.6045 13.9713 12.4576 14.3274 12.1962 14.5899C11.9348 14.8525 11.5803 15 11.2106 15H4.24086C3.87117 15 3.51661 14.8525 3.2552 14.5899C2.99378 14.3274 2.84692 13.9713 2.84692 13.6V3.8H12.6045Z" stroke="#fff" stroke-opacity="1" stroke-width="1.2" stroke-linecap="round" stroke-linejoin="round"/>
<path d="M6.33179 7.29999V11.5" stroke="#fff" stroke-opacity="1" stroke-width="1.2" stroke-linecap="round" stroke-linejoin="round"/>
<path d="M9.11987 7.29999V11.5" stroke="#fff" stroke-opacity="1" stroke-width="1.2" stroke-linecap="round" stroke-linejoin="round"/>
</svg>
