<svg width="140" height="14" viewBox="0 0 140 14" fill="none" xmlns="http://www.w3.org/2000/svg">
<g id="Vector">
<path d="M21.5243 0.452695V10.2216H30.4555V13.432H17.5734V0.452695H21.5243Z" fill="white"/>
<path d="M27.1099 3.66305V0.452695H42.6194V3.66305H36.8395V13.432H32.8899V3.66305H27.1099Z" fill="white"/>
<path d="M42.7914 0.452693H53.9797C56.2762 0.452693 57.2873 0.647022 58.0278 1.2694C58.7867 1.87208 59.1373 2.98159 59.1373 4.73317C59.1373 7.14651 58.553 8.09977 56.8999 8.46873C58.5149 8.74053 59.0021 9.42199 58.9627 11.3876V13.4307H54.954V11.8156C54.9343 10.4146 54.5456 10.1231 52.7744 10.1612H46.7226V13.4307H42.7914V0.451381V0.452693ZM52.8912 6.99158C54.7977 6.99158 55.168 6.75786 55.168 5.47372C55.168 4.63732 55.0906 4.28674 54.8371 4.01494C54.5457 3.70375 54.2148 3.64598 53.0278 3.64598H46.7226V6.99289H52.8912V6.99158Z" fill="white"/>
<path d="M71.531 0.452695L78.6332 13.432H74.3133L73.0292 11.1158H64.6612L63.4165 13.432H58.9404L66.2369 0.452695H71.531ZM71.6478 8.41096L68.8458 3.235L66.0832 8.41096H71.6478Z" fill="white"/>
<path d="M16.6424 7.26337V0.452695H9.88429L8.47016 5.72188H11.867L7.67314 13.5449C7.85959 13.5449 8.0513 13.5475 8.25613 13.5488L9.7346 13.5291C10.5132 13.5291 10.8638 13.5291 11.4665 13.5095C13.159 13.4898 14.3276 13.1786 15.2611 12.459C16.4087 11.4283 16.6818 10.4737 16.6424 7.26337Z" fill="white"/>
<path d="M7.99222 8.4753H4.77924L5.75218 0.452695H0.00375402V7.43932C-0.0553323 11.2917 0.568354 12.5181 2.92261 13.2377C3.78921 13.4674 4.47067 13.52 7.33044 13.5423L7.9909 8.4753H7.99222Z" fill="white"/>
<path d="M95.0292 4.83071C95.0292 3.78171 94.5661 3.37862 93.3397 3.33783H92.3138L90.8655 3.31743L89.3765 3.33783C88.0758 3.33783 87.2643 3.3783 86.942 3.45924C86.198 3.64087 85.8754 4.02357 85.7747 4.87151C85.7146 5.23478 85.6739 6.46541 85.6739 7.33278C85.6739 9.14814 85.855 9.87467 86.4189 10.2574C86.881 10.5594 87.4448 10.6809 88.5114 10.7012C88.8065 10.7148 89.7924 10.7216 91.469 10.7216C94.1447 10.742 94.6475 10.6002 94.9895 9.71247C95.0302 9.55123 95.0496 9.3696 95.0496 8.96651V8.64404H89.8793V6.14294H99.0331V7.99909C99.0331 10.2175 98.9527 11.0043 98.6911 11.7308C98.229 12.9819 97.2825 13.586 95.593 13.7676C95.1706 13.8084 93.9432 13.8279 89.98 13.8279C86.9023 13.8279 85.7146 13.7676 84.8698 13.586C83.4012 13.2635 82.5361 12.638 82.073 11.5288C81.671 10.6216 81.5702 9.67361 81.5702 7.17155C81.5702 4.28679 81.731 3.13774 82.2542 2.18975C82.8577 1.14075 83.8032 0.595849 85.5334 0.353996C86.4586 0.232583 88.088 0.172363 90.6436 0.172363C94.3046 0.172363 95.4719 0.232584 96.3167 0.434614C98.3889 0.959116 99.0525 2.00812 99.0331 4.83169L95.0292 4.83071Z" fill="white"/>
<path d="M105.949 9.05855L98.2457 0.303666H103.483L108.033 5.84568L112.542 0.303666H117.679L110.076 9.05855V13.6966H105.95L105.949 9.05855Z" fill="white"/>
<path d="M117.285 0.303666H123.775L128.673 9.19874L133.55 0.303666H140V13.6966H136.009L136.211 3.35603L130.244 13.6966H126.979L121.114 3.35603L121.235 13.6966H117.285V0.303666Z" fill="white"/>
</g>
</svg>
