<svg class="img_fluid" width="89" height="29" viewBox="0 0 89 29" fill="none"
  xmlns="http://www.w3.org/2000/svg">
  <path
    d="M0.00333679 16.8435H4.40363C4.72723 18.4004 5.9449 19.1489 8.1367 19.1489C10.3285 19.1489 11.2793 18.5435 11.2793 17.7949C11.2793 16.6406 9.33102 16.3777 7.05915 16.055C3.89321 15.6093 0.123436 15.0237 0.123436 11.7069C0.123436 9.01558 2.79897 7.19583 7.3227 7.19583C11.8464 7.19583 14.969 9.03554 15.4961 12.2326H11.276C10.9323 10.8353 9.5512 10.007 7.46282 10.007C5.37443 10.007 4.60379 10.5925 4.60379 11.3011C4.60379 12.3723 6.42863 12.6551 8.60042 12.9811C11.7864 13.4668 15.7396 14.0324 15.7396 17.3691C15.7396 20.1004 12.9607 21.9601 8.2568 21.9601C3.55293 21.9601 0.57047 20.1204 0 16.8435"
    fill="white" />
  <path d="M21.6645 10.5326H15.7029V7.49857H32.0297V10.5326H26.0882V21.6573H21.6645V10.5326Z"
    fill="white" />
  <path
    d="M32.9004 15.6093V7.49857H37.3207V15.7723C37.3207 17.6752 38.7219 18.7464 40.6668 18.7464C42.6118 18.7464 44.0329 17.6752 44.0329 15.7723V7.49857H48.3332V15.6292C48.3332 19.6546 45.3307 21.98 40.5868 21.98C35.8429 21.98 32.9004 19.6546 32.9004 15.6093Z"
    fill="white" />
  <path
    d="M49.5508 7.49857H56.9536C61.9644 7.49857 65.3505 10.1267 65.3505 14.5979C65.3505 19.0691 61.921 21.6573 56.8935 21.6573H49.5508V7.49857ZM53.9511 10.5958V18.6067H56.7101C59.3055 18.6067 60.8068 17.2926 60.8068 14.6212C60.8068 11.9498 59.3055 10.5958 56.7101 10.5958H53.9511Z"
    fill="white" />
  <path d="M70.765 7.49857H66.3847V21.6573H70.765V7.49857Z" fill="white" />
  <path
    d="M71.7992 14.578C71.7992 9.96704 75.3087 7.15591 80.3996 7.15591C85.4904 7.15591 89 9.96704 89 14.578C89 19.1889 85.4704 22 80.3996 22C75.3287 22 71.7992 19.1889 71.7992 14.578ZM84.4362 14.578C84.4362 11.8067 82.7949 10.3297 80.3996 10.3297C78.0043 10.3297 76.3429 11.8067 76.3429 14.578C76.3429 17.3492 77.9843 18.8462 80.3996 18.8462C82.8149 18.8462 84.4362 17.3492 84.4362 14.578Z"
    fill="white" />
  <path
    d="M68.5698 0L68.8067 0.635415C69.1537 1.57357 69.8976 2.31211 70.8384 2.6581L71.4756 2.8943L70.8384 3.1305C69.8976 3.47649 69.157 4.21836 68.8067 5.15651L68.5698 5.79193L68.333 5.15651C67.986 4.21836 67.2421 3.47981 66.3013 3.1305L65.6641 2.8943L66.3013 2.6581C67.2421 2.31211 67.9827 1.57024 68.333 0.635415L68.5698 0Z"
    fill="white" />
</svg>