<svg width="32" height="32" viewBox="0 0 32 32" fill="none" xmlns="http://www.w3.org/2000/svg">
<g id="ArrowsVertical">
<rect x="0.333333" y="0.333333" width="31.3333" height="31.3333" rx="15.6667" fill="black"/>
<rect x="0.333333" y="0.333333" width="31.3333" height="31.3333" rx="15.6667" stroke="#00FFBA" stroke-width="0.666667"/>
<path id="Vector" d="M19.3474 21.627C19.4135 21.68 19.466 21.7431 19.5017 21.8124C19.5375 21.8818 19.5559 21.9561 19.5559 22.0312C19.5559 22.1063 19.5375 22.1807 19.5017 22.2501C19.466 22.3194 19.4135 22.3824 19.3474 22.4355L16.5033 24.7211C16.4373 24.7742 16.3589 24.8164 16.2726 24.8451C16.1863 24.8739 16.0937 24.8887 16.0003 24.8887C15.9069 24.8887 15.8143 24.8739 15.728 24.8451C15.6417 24.8164 15.5633 24.7742 15.4973 24.7211L12.6532 22.4355C12.5198 22.3283 12.4448 22.1829 12.4448 22.0312C12.4448 21.8796 12.5198 21.7342 12.6532 21.627C12.7866 21.5198 12.9676 21.4595 13.1562 21.4595C13.3449 21.4595 13.5259 21.5198 13.6593 21.627L15.2893 22.9376V10.8397L13.6593 12.1504C13.5259 12.2576 13.3449 12.3178 13.1562 12.3178C12.9676 12.3178 12.7866 12.2576 12.6532 12.1504C12.5198 12.0431 12.4448 11.8977 12.4448 11.7461C12.4448 11.5945 12.5198 11.4491 12.6532 11.3418L15.4973 9.05625C15.5633 9.00313 15.6417 8.96098 15.728 8.93223C15.8143 8.90347 15.9069 8.88867 16.0003 8.88867C16.0937 8.88867 16.1863 8.90347 16.2726 8.93223C16.3589 8.96098 16.4373 9.00313 16.5033 9.05625L19.3474 11.3418C19.4808 11.4491 19.5558 11.5945 19.5558 11.7461C19.5558 11.8977 19.4808 12.0431 19.3474 12.1504C19.214 12.2576 19.033 12.3178 18.8444 12.3178C18.6557 12.3178 18.4747 12.2576 18.3413 12.1504L16.7113 10.8397V22.9376L18.3413 21.627C18.4074 21.5738 18.4858 21.5317 18.5721 21.5029C18.6584 21.4742 18.7509 21.4594 18.8444 21.4594C18.9378 21.4594 19.0303 21.4742 19.1166 21.5029C19.203 21.5317 19.2814 21.5738 19.3474 21.627Z" fill="#00FFBA"/>
</g>
</svg>
