<svg width="36" height="36" viewBox="0 0 36 36" fill="none" xmlns="http://www.w3.org/2000/svg">
<path id="Vector" d="M18 0C14.4399 0 10.9598 1.05568 7.99974 3.03355C5.03966 5.01141 2.73255 7.82263 1.37018 11.1117C0.00779912 14.4008 -0.348661 18.02 0.345873 21.5116C1.04041 25.0033 2.75474 28.2106 5.27208 30.7279C7.78943 33.2453 10.9967 34.9596 14.4884 35.6541C17.98 36.3487 21.5992 35.9922 24.8883 34.6298C28.1774 33.2674 30.9886 30.9603 32.9665 28.0003C34.9443 25.0402 36 21.5601 36 18C35.995 13.2276 34.0969 8.6522 30.7224 5.27764C27.3478 1.90308 22.7724 0.00503969 18 0ZM24.5181 22.5588C24.6467 22.6875 24.7488 22.8402 24.8184 23.0083C24.888 23.1764 24.9239 23.3565 24.9239 23.5385C24.9239 23.7204 24.888 23.9005 24.8184 24.0686C24.7488 24.2367 24.6467 24.3894 24.5181 24.5181C24.3894 24.6467 24.2367 24.7488 24.0686 24.8184C23.9005 24.888 23.7204 24.9238 23.5385 24.9238C23.3565 24.9238 23.1764 24.888 23.0083 24.8184C22.8402 24.7488 22.6875 24.6467 22.5588 24.5181L18 19.9575L13.4412 24.5181C13.3125 24.6467 13.1598 24.7488 12.9917 24.8184C12.8236 24.888 12.6435 24.9238 12.4615 24.9238C12.2796 24.9238 12.0995 24.888 11.9314 24.8184C11.7633 24.7488 11.6106 24.6467 11.4819 24.5181C11.3533 24.3894 11.2512 24.2367 11.1816 24.0686C11.112 23.9005 11.0762 23.7204 11.0762 23.5385C11.0762 23.3565 11.112 23.1764 11.1816 23.0083C11.2512 22.8402 11.3533 22.6875 11.4819 22.5588L16.0425 18L11.4819 13.4412C11.2221 13.1813 11.0762 12.829 11.0762 12.4615C11.0762 12.0941 11.2221 11.7417 11.4819 11.4819C11.7417 11.2221 12.0941 11.0762 12.4615 11.0762C12.829 11.0762 13.1813 11.2221 13.4412 11.4819L18 16.0425L22.5588 11.4819C22.6875 11.3533 22.8402 11.2512 23.0083 11.1816C23.1764 11.112 23.3565 11.0762 23.5385 11.0762C23.7204 11.0762 23.9005 11.112 24.0686 11.1816C24.2367 11.2512 24.3894 11.3533 24.5181 11.4819C24.6467 11.6106 24.7488 11.7633 24.8184 11.9314C24.888 12.0995 24.9239 12.2796 24.9239 12.4615C24.9239 12.6435 24.888 12.8236 24.8184 12.9917C24.7488 13.1598 24.6467 13.3125 24.5181 13.4412L19.9575 18L24.5181 22.5588Z" fill="#00FFBA"/>
</svg>
