<svg viewBox="14.83 2.83 20 20" fill="none" xmlns="http://www.w3.org/2000/svg">
<g id="CheckCircle">
<path id="Vector" opacity="0.3" d="M24.834 2.82568C22.8562 2.82568 20.9228 3.41217 19.2783 4.51099C17.6338 5.6098 16.3521 7.17159 15.5952 8.99885C14.8383 10.8261 14.6403 12.8368 15.0261 14.7766C15.412 16.7164 16.3644 18.4982 17.7629 19.8967C19.1614 21.2953 20.9433 22.2477 22.8831 22.6335C24.8229 23.0194 26.8336 22.8214 28.6608 22.0645C30.4881 21.3076 32.0499 20.0259 33.1487 18.3814C34.2475 16.7369 34.834 14.8035 34.834 12.8257C34.8312 10.1744 33.7767 7.63246 31.902 5.75771C30.0272 3.88295 27.4853 2.82848 24.834 2.82568ZM28.4551 15.3584C28.5266 15.4298 28.5833 15.5147 28.622 15.6081C28.6607 15.7014 28.6806 15.8015 28.6806 15.9026C28.6806 16.0037 28.6607 16.1038 28.622 16.1971C28.5833 16.2905 28.5266 16.3754 28.4551 16.4468C28.3837 16.5183 28.2988 16.575 28.2054 16.6137C28.1121 16.6524 28.012 16.6723 27.9109 16.6723C27.8098 16.6723 27.7098 16.6524 27.6164 16.6137C27.523 16.575 27.4381 16.5183 27.3667 16.4468L24.834 13.9132L22.3013 16.4468C22.2298 16.5183 22.145 16.575 22.0516 16.6137C21.9582 16.6524 21.8581 16.6723 21.7571 16.6723C21.656 16.6723 21.5559 16.6524 21.4625 16.6137C21.3691 16.575 21.2843 16.5183 21.2128 16.4468C21.1414 16.3754 21.0847 16.2905 21.046 16.1971C21.0073 16.1038 20.9874 16.0037 20.9874 15.9026C20.9874 15.8015 21.0073 15.7014 21.046 15.6081C21.0847 15.5147 21.1414 15.4298 21.2128 15.3584L23.7465 12.8257L21.2128 10.293C21.0685 10.1487 20.9874 9.95289 20.9874 9.74876C20.9874 9.54463 21.0685 9.34887 21.2128 9.20453C21.3572 9.06019 21.5529 8.9791 21.7571 8.9791C21.9612 8.9791 22.157 9.06019 22.3013 9.20453L24.834 11.7382L27.3667 9.20453C27.4381 9.13306 27.523 9.07637 27.6164 9.03769C27.7098 8.99901 27.8098 8.9791 27.9109 8.9791C28.012 8.9791 28.1121 8.99901 28.2054 9.03769C28.2988 9.07637 28.3837 9.13306 28.4551 9.20453C28.5266 9.276 28.5833 9.36084 28.622 9.45422C28.6607 9.5476 28.6806 9.64769 28.6806 9.74876C28.6806 9.84983 28.6607 9.94992 28.622 10.0433C28.5833 10.1367 28.5266 10.2215 28.4551 10.293L25.9215 12.8257L28.4551 15.3584Z" fill="white"></path>
</g>
</svg>