<svg width="25" height="26" viewBox="0 0 25 26" fill="none" xmlns="http://www.w3.org/2000/svg">
<path d="M12.5 6.65625C15.9453 6.65625 18.7891 9.5 18.7891 12.9453C18.7891 16.4453 15.9453 19.2344 12.5 19.2344C9 19.2344 6.21094 16.4453 6.21094 12.9453C6.21094 9.5 9 6.65625 12.5 6.65625ZM12.5 17.0469C14.7422 17.0469 16.5469 15.2422 16.5469 12.9453C16.5469 10.7031 14.7422 8.89844 12.5 8.89844C10.2031 8.89844 8.39844 10.7031 8.39844 12.9453C8.39844 15.2422 10.2578 17.0469 12.5 17.0469ZM20.4844 6.4375C20.4844 5.61719 19.8281 4.96094 19.0078 4.96094C18.1875 4.96094 17.5312 5.61719 17.5312 6.4375C17.5312 7.25781 18.1875 7.91406 19.0078 7.91406C19.8281 7.91406 20.4844 7.25781 20.4844 6.4375ZM24.6406 7.91406C24.75 9.9375 24.75 16.0078 24.6406 18.0312C24.5312 20 24.0938 21.6953 22.6719 23.1719C21.25 24.5938 19.5 25.0312 17.5312 25.1406C15.5078 25.25 9.4375 25.25 7.41406 25.1406C5.44531 25.0312 3.75 24.5938 2.27344 23.1719C0.851562 21.6953 0.414062 20 0.304688 18.0312C0.195312 16.0078 0.195312 9.9375 0.304688 7.91406C0.414062 5.94531 0.851562 4.19531 2.27344 2.77344C3.75 1.35156 5.44531 0.914062 7.41406 0.804688C9.4375 0.695312 15.5078 0.695312 17.5312 0.804688C19.5 0.914062 21.25 1.35156 22.6719 2.77344C24.0938 4.19531 24.5312 5.94531 24.6406 7.91406ZM22.0156 20.1641C22.6719 18.5781 22.5078 14.75 22.5078 12.9453C22.5078 11.1953 22.6719 7.36719 22.0156 5.72656C21.5781 4.6875 20.7578 3.8125 19.7188 3.42969C18.0781 2.77344 14.25 2.9375 12.5 2.9375C10.6953 2.9375 6.86719 2.77344 5.28125 3.42969C4.1875 3.86719 3.36719 4.6875 2.92969 5.72656C2.27344 7.36719 2.4375 11.1953 2.4375 12.9453C2.4375 14.75 2.27344 18.5781 2.92969 20.1641C3.36719 21.2578 4.1875 22.0781 5.28125 22.5156C6.86719 23.1719 10.6953 23.0078 12.5 23.0078C14.25 23.0078 18.0781 23.1719 19.7188 22.5156C20.7578 22.0781 21.6328 21.2578 22.0156 20.1641Z" fill="white"/>
</svg>
