<svg width="25" height="26" viewBox="0 0 25 26" fill="none" xmlns="http://www.w3.org/2000/svg">
<path d="M23 0.695312C23.9297 0.695312 24.75 1.51562 24.75 2.5V23.4453C24.75 24.4297 23.9297 25.1953 23 25.1953H1.94531C1.01562 25.1953 0.25 24.4297 0.25 23.4453V2.5C0.25 1.51562 1.01562 0.695312 1.94531 0.695312H23ZM7.63281 21.6953V10.0469H4.02344V21.6953H7.63281ZM5.82812 8.40625C6.97656 8.40625 7.90625 7.47656 7.90625 6.32812C7.90625 5.17969 6.97656 4.19531 5.82812 4.19531C4.625 4.19531 3.69531 5.17969 3.69531 6.32812C3.69531 7.47656 4.625 8.40625 5.82812 8.40625ZM21.25 21.6953V15.2969C21.25 12.1797 20.5391 9.71875 16.875 9.71875C15.125 9.71875 13.9219 10.7031 13.4297 11.6328H13.375V10.0469H9.92969V21.6953H13.5391V15.9531C13.5391 14.4219 13.8125 12.9453 15.7266 12.9453C17.5859 12.9453 17.5859 14.6953 17.5859 16.0078V21.6953H21.25Z" fill="white"/>
</svg>
